<?xml version="1.0" encoding="UTF-8" standalone="no"?>
<svg version="1.1"
	xmlns="http://www.w3.org/2000/svg"
	width="1493.2063144684357"
	height="3040"
	style="background-color:#ffffff"
	><rect width="100%" height="100%" fill="#ffffff" /><rect x="1161.6332550513075" y="10" width="106" height="50" fill="#a5660b" />
	<text x="1166.0" y="41.75" fill="#5a99f4" font-family="FiraCode Nerd Font,Ubuntu Mono,monospace,Arial" font-size="20">rawtiles</text>
	<rect x="1046.2485231315372" y="120" width="154" height="50" fill="#aad9e0" rx="100" />
	<text x="1051.0" y="151.75" fill="#55261f" font-family="FiraCode Nerd Font,Ubuntu Mono,monospace,Arial" font-size="20">inferruns.py</text>
	<line x1="1011.2485231315372" y1="120" x2="1011.2485231315372" y2="170" stroke="#a5660b" stroke-width="2" />
	<line x1="1481.2063144684357" y1="120" x2="1481.2063144684357" y2="170" stroke="#a5660b" stroke-width="2" />
	<rect x="1094.2485231315372" y="230" width="58" height="50" fill="#f81ed0" />
	<text x="1099.0" y="261.75" fill="#07e12f" font-family="FiraCode Nerd Font,Ubuntu Mono,monospace,Arial" font-size="20">runs</text>
	<line x1="1011.2485231315372" y1="230" x2="1011.2485231315372" y2="280" stroke="#a5660b" stroke-width="2" />
	<line x1="1481.2063144684357" y1="230" x2="1481.2063144684357" y2="280" stroke="#a5660b" stroke-width="2" />
	<rect x="966.2485231315372" y="340" width="202" height="50" fill="#36163a" rx="100" />
	<text x="971.0" y="371.75" fill="#c9e9c5" font-family="FiraCode Nerd Font,Ubuntu Mono,monospace,Arial" font-size="20">produceallq25.py</text>
	<line x1="1481.2063144684357" y1="340" x2="1481.2063144684357" y2="390" stroke="#a5660b" stroke-width="2" />
	<rect x="1050.8142612828688" y="450" width="178" height="50" fill="#c14ed5" />
	<text x="1055.0" y="481.75" fill="#3eb12a" font-family="FiraCode Nerd Font,Ubuntu Mono,monospace,Arial" font-size="20">scaled/q25/tif</text>
	<rect x="841.191773924174" y="450" width="166" height="50" fill="#dd94e1" />
	<text x="846.0" y="481.75" fill="#226b1e" font-family="FiraCode Nerd Font,Ubuntu Mono,monospace,Arial" font-size="20">scaled/q5/tif</text>
	<line x1="1481.2063144684357" y1="450" x2="1481.2063144684357" y2="500" stroke="#a5660b" stroke-width="2" />
	<line x1="1139.8142612828688" y1="560" x2="1139.8142612828688" y2="610" stroke="#c14ed5" stroke-width="2" />
	<rect x="890.8142612828688" y="560" width="214" height="50" fill="#3d8402" rx="100" />
	<text x="895.0" y="591.75" fill="#c27bfd" font-family="FiraCode Nerd Font,Ubuntu Mono,monospace,Arial" font-size="20">relmontalignq5.py</text>
	<rect x="622.8142612828688" y="560" width="238" height="50" fill="#d35d36" rx="100" />
	<text x="627.0" y="591.75" fill="#2ca2c9" font-family="FiraCode Nerd Font,Ubuntu Mono,monospace,Arial" font-size="20">relmontattouchq5.py</text>
	<line x1="165.20188523363322" y1="560" x2="165.20188523363322" y2="610" stroke="#dd94e1" stroke-width="2" />
	<line x1="1441.2063144684357" y1="560" x2="1441.2063144684357" y2="610" stroke="#dd94e1" stroke-width="2" />
	<rect x="402.8142612828692" y="560" width="190" height="50" fill="#f06be5" rx="100" />
	<text x="407.0" y="591.75" fill="#0f941a" font-family="FiraCode Nerd Font,Ubuntu Mono,monospace,Arial" font-size="20">slicealignq5.py</text>
	<line x1="1481.2063144684357" y1="560" x2="1481.2063144684357" y2="610" stroke="#a5660b" stroke-width="2" />
	<line x1="1139.8142612828688" y1="670" x2="1139.8142612828688" y2="720" stroke="#c14ed5" stroke-width="2" />
	<rect x="908.8142612828688" y="670" width="178" height="50" fill="#d7a613" />
	<text x="913.0" y="701.75" fill="#2859ec" font-family="FiraCode Nerd Font,Ubuntu Mono,monospace,Arial" font-size="20">relmontalignq5</text>
	<rect x="640.8142612828688" y="670" width="202" height="50" fill="#349d0b" />
	<text x="645.0" y="701.75" fill="#cb62f4" font-family="FiraCode Nerd Font,Ubuntu Mono,monospace,Arial" font-size="20">relmontattouchq5</text>
	<line x1="165.20188523363322" y1="670" x2="165.20188523363322" y2="720" stroke="#dd94e1" stroke-width="2" />
	<line x1="1441.2063144684357" y1="670" x2="1441.2063144684357" y2="720" stroke="#dd94e1" stroke-width="2" />
	<rect x="420.8142612828692" y="670" width="154" height="50" fill="#6292fa" />
	<text x="425.0" y="701.75" fill="#9d6d05" font-family="FiraCode Nerd Font,Ubuntu Mono,monospace,Arial" font-size="20">slicealignq5</text>
	<line x1="1481.2063144684357" y1="670" x2="1481.2063144684357" y2="720" stroke="#a5660b" stroke-width="2" />
	<line x1="1139.8142612828688" y1="780" x2="1139.8142612828688" y2="830" stroke="#c14ed5" stroke-width="2" />
	<line x1="649.0485370356905" y1="780" x2="649.0485370356905" y2="830" stroke="#d7a613" stroke-width="2" />
	<line x1="986.4266658628569" y1="780" x2="986.4266658628569" y2="830" stroke="#d7a613" stroke-width="2" />
	<line x1="1347.2063144684357" y1="780" x2="1347.2063144684357" y2="830" stroke="#d7a613" stroke-width="2" />
	<rect x="684.0485370356905" y="780" width="190" height="50" fill="#014a0a" rx="100" />
	<text x="689.0" y="811.75" fill="#feb5f5" font-family="FiraCode Nerd Font,Ubuntu Mono,monospace,Arial" font-size="20">solveq5slice.py</text>
	<line x1="361.04853703569046" y1="780" x2="361.04853703569046" y2="830" stroke="#349d0b" stroke-width="2" />
	<line x1="525.0485370356905" y1="780" x2="525.0485370356905" y2="830" stroke="#349d0b" stroke-width="2" />
	<line x1="1307.2063144684357" y1="780" x2="1307.2063144684357" y2="830" stroke="#349d0b" stroke-width="2" />
	<line x1="165.20188523363322" y1="780" x2="165.20188523363322" y2="830" stroke="#dd94e1" stroke-width="2" />
	<line x1="1441.2063144684357" y1="780" x2="1441.2063144684357" y2="830" stroke="#dd94e1" stroke-width="2" />
	<line x1="205.20631446843572" y1="780" x2="205.20631446843572" y2="830" stroke="#6292fa" stroke-width="2" />
	<line x1="321.04853703569046" y1="780" x2="321.04853703569046" y2="830" stroke="#6292fa" stroke-width="2" />
	<line x1="1267.2063144684357" y1="780" x2="1267.2063144684357" y2="830" stroke="#6292fa" stroke-width="2" />
	<line x1="1481.2063144684357" y1="780" x2="1481.2063144684357" y2="830" stroke="#a5660b" stroke-width="2" />
	<line x1="1139.8142612828688" y1="890" x2="1139.8142612828688" y2="940" stroke="#c14ed5" stroke-width="2" />
	<line x1="649.0485370356905" y1="890" x2="649.0485370356905" y2="940" stroke="#d7a613" stroke-width="2" />
	<line x1="986.4266658628569" y1="890" x2="986.4266658628569" y2="940" stroke="#d7a613" stroke-width="2" />
	<line x1="1347.2063144684357" y1="890" x2="1347.2063144684357" y2="940" stroke="#d7a613" stroke-width="2" />
	<rect x="702.0485370356905" y="890" width="154" height="50" fill="#d594bb" />
	<text x="707.0" y="921.75" fill="#2a6b44" font-family="FiraCode Nerd Font,Ubuntu Mono,monospace,Arial" font-size="20">solveq5slice</text>
	<line x1="361.04853703569046" y1="890" x2="361.04853703569046" y2="940" stroke="#349d0b" stroke-width="2" />
	<line x1="525.0485370356905" y1="890" x2="525.0485370356905" y2="940" stroke="#349d0b" stroke-width="2" />
	<line x1="1307.2063144684357" y1="890" x2="1307.2063144684357" y2="940" stroke="#349d0b" stroke-width="2" />
	<line x1="165.20188523363322" y1="890" x2="165.20188523363322" y2="940" stroke="#dd94e1" stroke-width="2" />
	<line x1="1441.2063144684357" y1="890" x2="1441.2063144684357" y2="940" stroke="#dd94e1" stroke-width="2" />
	<line x1="205.20631446843572" y1="890" x2="205.20631446843572" y2="940" stroke="#6292fa" stroke-width="2" />
	<line x1="321.04853703569046" y1="890" x2="321.04853703569046" y2="940" stroke="#6292fa" stroke-width="2" />
	<line x1="1267.2063144684357" y1="890" x2="1267.2063144684357" y2="940" stroke="#6292fa" stroke-width="2" />
	<line x1="1481.2063144684357" y1="890" x2="1481.2063144684357" y2="940" stroke="#a5660b" stroke-width="2" />
	<rect x="737.4266658628569" y="1000" width="214" height="50" fill="#60a237" rx="100" />
	<text x="742.0" y="1031.75" fill="#9f5dc8" font-family="FiraCode Nerd Font,Ubuntu Mono,monospace,Arial" font-size="20">renderq25slice.py</text>
	<line x1="649.0485370356905" y1="1000" x2="649.0485370356905" y2="1050" stroke="#d7a613" stroke-width="2" />
	<line x1="986.4266658628569" y1="1000" x2="986.4266658628569" y2="1050" stroke="#d7a613" stroke-width="2" />
	<line x1="1347.2063144684357" y1="1000" x2="1347.2063144684357" y2="1050" stroke="#d7a613" stroke-width="2" />
	<line x1="702.4266658628571" y1="1000" x2="702.4266658628571" y2="1050" stroke="#d594bb" stroke-width="2" />
	<line x1="361.04853703569046" y1="1000" x2="361.04853703569046" y2="1050" stroke="#349d0b" stroke-width="2" />
	<line x1="525.0485370356905" y1="1000" x2="525.0485370356905" y2="1050" stroke="#349d0b" stroke-width="2" />
	<line x1="1307.2063144684357" y1="1000" x2="1307.2063144684357" y2="1050" stroke="#349d0b" stroke-width="2" />
	<line x1="165.20188523363322" y1="1000" x2="165.20188523363322" y2="1050" stroke="#dd94e1" stroke-width="2" />
	<line x1="1441.2063144684357" y1="1000" x2="1441.2063144684357" y2="1050" stroke="#dd94e1" stroke-width="2" />
	<line x1="205.20631446843572" y1="1000" x2="205.20631446843572" y2="1050" stroke="#6292fa" stroke-width="2" />
	<line x1="321.04853703569046" y1="1000" x2="321.04853703569046" y2="1050" stroke="#6292fa" stroke-width="2" />
	<line x1="1267.2063144684357" y1="1000" x2="1267.2063144684357" y2="1050" stroke="#6292fa" stroke-width="2" />
	<line x1="1481.2063144684357" y1="1000" x2="1481.2063144684357" y2="1050" stroke="#a5660b" stroke-width="2" />
	<rect x="761.4266658628569" y="1110" width="166" height="50" fill="#8ba266" />
	<text x="766.0" y="1141.75" fill="#745d99" font-family="FiraCode Nerd Font,Ubuntu Mono,monospace,Arial" font-size="20">slicesq25/jpg</text>
	<line x1="649.0485370356905" y1="1110" x2="649.0485370356905" y2="1160" stroke="#d7a613" stroke-width="2" />
	<line x1="986.4266658628569" y1="1110" x2="986.4266658628569" y2="1160" stroke="#d7a613" stroke-width="2" />
	<line x1="1347.2063144684357" y1="1110" x2="1347.2063144684357" y2="1160" stroke="#d7a613" stroke-width="2" />
	<line x1="702.4266658628571" y1="1110" x2="702.4266658628571" y2="1160" stroke="#d594bb" stroke-width="2" />
	<line x1="361.04853703569046" y1="1110" x2="361.04853703569046" y2="1160" stroke="#349d0b" stroke-width="2" />
	<line x1="525.0485370356905" y1="1110" x2="525.0485370356905" y2="1160" stroke="#349d0b" stroke-width="2" />
	<line x1="1307.2063144684357" y1="1110" x2="1307.2063144684357" y2="1160" stroke="#349d0b" stroke-width="2" />
	<line x1="165.20188523363322" y1="1110" x2="165.20188523363322" y2="1160" stroke="#dd94e1" stroke-width="2" />
	<line x1="1441.2063144684357" y1="1110" x2="1441.2063144684357" y2="1160" stroke="#dd94e1" stroke-width="2" />
	<line x1="205.20631446843572" y1="1110" x2="205.20631446843572" y2="1160" stroke="#6292fa" stroke-width="2" />
	<line x1="321.04853703569046" y1="1110" x2="321.04853703569046" y2="1160" stroke="#6292fa" stroke-width="2" />
	<line x1="1267.2063144684357" y1="1110" x2="1267.2063144684357" y2="1160" stroke="#6292fa" stroke-width="2" />
	<line x1="1481.2063144684357" y1="1110" x2="1481.2063144684357" y2="1160" stroke="#a5660b" stroke-width="2" />
	<rect x="755.4266658628569" y="1220" width="178" height="50" fill="#2f78dd" rx="100" />
	<text x="760.0" y="1251.75" fill="#d08722" font-family="FiraCode Nerd Font,Ubuntu Mono,monospace,Arial" font-size="20">interrunq25.py</text>
	<line x1="649.0485370356905" y1="1220" x2="649.0485370356905" y2="1270" stroke="#d7a613" stroke-width="2" />
	<line x1="986.4266658628569" y1="1220" x2="986.4266658628569" y2="1270" stroke="#d7a613" stroke-width="2" />
	<line x1="1347.2063144684357" y1="1220" x2="1347.2063144684357" y2="1270" stroke="#d7a613" stroke-width="2" />
	<line x1="702.4266658628571" y1="1220" x2="702.4266658628571" y2="1270" stroke="#d594bb" stroke-width="2" />
	<line x1="361.04853703569046" y1="1220" x2="361.04853703569046" y2="1270" stroke="#349d0b" stroke-width="2" />
	<line x1="525.0485370356905" y1="1220" x2="525.0485370356905" y2="1270" stroke="#349d0b" stroke-width="2" />
	<line x1="1307.2063144684357" y1="1220" x2="1307.2063144684357" y2="1270" stroke="#349d0b" stroke-width="2" />
	<line x1="165.20188523363322" y1="1220" x2="165.20188523363322" y2="1270" stroke="#dd94e1" stroke-width="2" />
	<line x1="1441.2063144684357" y1="1220" x2="1441.2063144684357" y2="1270" stroke="#dd94e1" stroke-width="2" />
	<line x1="205.20631446843572" y1="1220" x2="205.20631446843572" y2="1270" stroke="#6292fa" stroke-width="2" />
	<line x1="321.04853703569046" y1="1220" x2="321.04853703569046" y2="1270" stroke="#6292fa" stroke-width="2" />
	<line x1="1267.2063144684357" y1="1220" x2="1267.2063144684357" y2="1270" stroke="#6292fa" stroke-width="2" />
	<line x1="1481.2063144684357" y1="1220" x2="1481.2063144684357" y2="1270" stroke="#a5660b" stroke-width="2" />
	<rect x="773.4266658628569" y="1330" width="142" height="50" fill="#296466" />
	<text x="778.0" y="1361.75" fill="#d69b99" font-family="FiraCode Nerd Font,Ubuntu Mono,monospace,Arial" font-size="20">interrunq25</text>
	<line x1="649.0485370356905" y1="1330" x2="649.0485370356905" y2="1380" stroke="#d7a613" stroke-width="2" />
	<line x1="986.4266658628569" y1="1330" x2="986.4266658628569" y2="1380" stroke="#d7a613" stroke-width="2" />
	<line x1="1347.2063144684357" y1="1330" x2="1347.2063144684357" y2="1380" stroke="#d7a613" stroke-width="2" />
	<line x1="702.4266658628571" y1="1330" x2="702.4266658628571" y2="1380" stroke="#d594bb" stroke-width="2" />
	<line x1="361.04853703569046" y1="1330" x2="361.04853703569046" y2="1380" stroke="#349d0b" stroke-width="2" />
	<line x1="525.0485370356905" y1="1330" x2="525.0485370356905" y2="1380" stroke="#349d0b" stroke-width="2" />
	<line x1="1307.2063144684357" y1="1330" x2="1307.2063144684357" y2="1380" stroke="#349d0b" stroke-width="2" />
	<line x1="165.20188523363322" y1="1330" x2="165.20188523363322" y2="1380" stroke="#dd94e1" stroke-width="2" />
	<line x1="1441.2063144684357" y1="1330" x2="1441.2063144684357" y2="1380" stroke="#dd94e1" stroke-width="2" />
	<line x1="205.20631446843572" y1="1330" x2="205.20631446843572" y2="1380" stroke="#6292fa" stroke-width="2" />
	<line x1="321.04853703569046" y1="1330" x2="321.04853703569046" y2="1380" stroke="#6292fa" stroke-width="2" />
	<line x1="1267.2063144684357" y1="1330" x2="1267.2063144684357" y2="1380" stroke="#6292fa" stroke-width="2" />
	<line x1="1481.2063144684357" y1="1330" x2="1481.2063144684357" y2="1380" stroke="#a5660b" stroke-width="2" />
	<rect x="684.0485370356905" y="1440" width="214" height="50" fill="#1cc068" rx="100" />
	<text x="689.0" y="1471.75" fill="#e33f97" font-family="FiraCode Nerd Font,Ubuntu Mono,monospace,Arial" font-size="20">transrunmontq5.py</text>
	<line x1="649.0485370356905" y1="1440" x2="649.0485370356905" y2="1490" stroke="#d7a613" stroke-width="2" />
	<line x1="986.4266658628569" y1="1440" x2="986.4266658628569" y2="1490" stroke="#d7a613" stroke-width="2" />
	<line x1="1347.2063144684357" y1="1440" x2="1347.2063144684357" y2="1490" stroke="#d7a613" stroke-width="2" />
	<line x1="361.04853703569046" y1="1440" x2="361.04853703569046" y2="1490" stroke="#349d0b" stroke-width="2" />
	<line x1="525.0485370356905" y1="1440" x2="525.0485370356905" y2="1490" stroke="#349d0b" stroke-width="2" />
	<line x1="1307.2063144684357" y1="1440" x2="1307.2063144684357" y2="1490" stroke="#349d0b" stroke-width="2" />
	<line x1="165.20188523363322" y1="1440" x2="165.20188523363322" y2="1490" stroke="#dd94e1" stroke-width="2" />
	<line x1="1441.2063144684357" y1="1440" x2="1441.2063144684357" y2="1490" stroke="#dd94e1" stroke-width="2" />
	<line x1="205.20631446843572" y1="1440" x2="205.20631446843572" y2="1490" stroke="#6292fa" stroke-width="2" />
	<line x1="321.04853703569046" y1="1440" x2="321.04853703569046" y2="1490" stroke="#6292fa" stroke-width="2" />
	<line x1="1267.2063144684357" y1="1440" x2="1267.2063144684357" y2="1490" stroke="#6292fa" stroke-width="2" />
	<line x1="1481.2063144684357" y1="1440" x2="1481.2063144684357" y2="1490" stroke="#a5660b" stroke-width="2" />
	<rect x="702.0485370356905" y="1550" width="178" height="50" fill="#7e5538" />
	<text x="707.0" y="1581.75" fill="#81aac7" font-family="FiraCode Nerd Font,Ubuntu Mono,monospace,Arial" font-size="20">transrunmontq5</text>
	<line x1="649.0485370356905" y1="1550" x2="649.0485370356905" y2="1600" stroke="#d7a613" stroke-width="2" />
	<line x1="986.4266658628569" y1="1550" x2="986.4266658628569" y2="1600" stroke="#d7a613" stroke-width="2" />
	<line x1="1347.2063144684357" y1="1550" x2="1347.2063144684357" y2="1600" stroke="#d7a613" stroke-width="2" />
	<line x1="361.04853703569046" y1="1550" x2="361.04853703569046" y2="1600" stroke="#349d0b" stroke-width="2" />
	<line x1="525.0485370356905" y1="1550" x2="525.0485370356905" y2="1600" stroke="#349d0b" stroke-width="2" />
	<line x1="1307.2063144684357" y1="1550" x2="1307.2063144684357" y2="1600" stroke="#349d0b" stroke-width="2" />
	<line x1="165.20188523363322" y1="1550" x2="165.20188523363322" y2="1600" stroke="#dd94e1" stroke-width="2" />
	<line x1="1441.2063144684357" y1="1550" x2="1441.2063144684357" y2="1600" stroke="#dd94e1" stroke-width="2" />
	<line x1="205.20631446843572" y1="1550" x2="205.20631446843572" y2="1600" stroke="#6292fa" stroke-width="2" />
	<line x1="321.04853703569046" y1="1550" x2="321.04853703569046" y2="1600" stroke="#6292fa" stroke-width="2" />
	<line x1="1267.2063144684357" y1="1550" x2="1267.2063144684357" y2="1600" stroke="#6292fa" stroke-width="2" />
	<line x1="1481.2063144684357" y1="1550" x2="1481.2063144684357" y2="1600" stroke="#a5660b" stroke-width="2" />
	<line x1="401.04853703569046" y1="1660" x2="401.04853703569046" y2="1710" stroke="#7e5538" stroke-width="2" />
	<rect x="436.04853703569046" y="1660" width="178" height="50" fill="#5054fe" rx="100" />
	<text x="441.0" y="1691.75" fill="#afab01" font-family="FiraCode Nerd Font,Ubuntu Mono,monospace,Arial" font-size="20">solveq5mont.py</text>
	<line x1="1227.2063144684357" y1="1660" x2="1227.2063144684357" y2="1710" stroke="#7e5538" stroke-width="2" />
	<line x1="649.0485370356905" y1="1660" x2="649.0485370356905" y2="1710" stroke="#d7a613" stroke-width="2" />
	<line x1="1347.2063144684357" y1="1660" x2="1347.2063144684357" y2="1710" stroke="#d7a613" stroke-width="2" />
	<line x1="361.04853703569046" y1="1660" x2="361.04853703569046" y2="1710" stroke="#349d0b" stroke-width="2" />
	<line x1="1307.2063144684357" y1="1660" x2="1307.2063144684357" y2="1710" stroke="#349d0b" stroke-width="2" />
	<line x1="165.20188523363322" y1="1660" x2="165.20188523363322" y2="1710" stroke="#dd94e1" stroke-width="2" />
	<line x1="1441.2063144684357" y1="1660" x2="1441.2063144684357" y2="1710" stroke="#dd94e1" stroke-width="2" />
	<line x1="205.20631446843572" y1="1660" x2="205.20631446843572" y2="1710" stroke="#6292fa" stroke-width="2" />
	<line x1="1267.2063144684357" y1="1660" x2="1267.2063144684357" y2="1710" stroke="#6292fa" stroke-width="2" />
	<line x1="1481.2063144684357" y1="1660" x2="1481.2063144684357" y2="1710" stroke="#a5660b" stroke-width="2" />
	<line x1="401.04853703569046" y1="1770" x2="401.04853703569046" y2="1820" stroke="#7e5538" stroke-width="2" />
	<rect x="454.04853703569046" y="1770" width="142" height="50" fill="#086707" />
	<text x="459.0" y="1801.75" fill="#f798f8" font-family="FiraCode Nerd Font,Ubuntu Mono,monospace,Arial" font-size="20">solveq5mont</text>
	<line x1="1227.2063144684357" y1="1770" x2="1227.2063144684357" y2="1820" stroke="#7e5538" stroke-width="2" />
	<line x1="649.0485370356905" y1="1770" x2="649.0485370356905" y2="1820" stroke="#d7a613" stroke-width="2" />
	<line x1="1347.2063144684357" y1="1770" x2="1347.2063144684357" y2="1820" stroke="#d7a613" stroke-width="2" />
	<line x1="361.04853703569046" y1="1770" x2="361.04853703569046" y2="1820" stroke="#349d0b" stroke-width="2" />
	<line x1="1307.2063144684357" y1="1770" x2="1307.2063144684357" y2="1820" stroke="#349d0b" stroke-width="2" />
	<line x1="165.20188523363322" y1="1770" x2="165.20188523363322" y2="1820" stroke="#dd94e1" stroke-width="2" />
	<line x1="1441.2063144684357" y1="1770" x2="1441.2063144684357" y2="1820" stroke="#dd94e1" stroke-width="2" />
	<line x1="205.20631446843572" y1="1770" x2="205.20631446843572" y2="1820" stroke="#6292fa" stroke-width="2" />
	<line x1="1267.2063144684357" y1="1770" x2="1267.2063144684357" y2="1820" stroke="#6292fa" stroke-width="2" />
	<line x1="1481.2063144684357" y1="1770" x2="1481.2063144684357" y2="1820" stroke="#a5660b" stroke-width="2" />
	<line x1="401.04853703569046" y1="1880" x2="401.04853703569046" y2="1930" stroke="#7e5538" stroke-width="2" />
	<line x1="729.0485370356905" y1="1880" x2="729.0485370356905" y2="1930" stroke="#086707" stroke-width="2" />
	<line x1="1093.2063144684357" y1="1880" x2="1093.2063144684357" y2="1930" stroke="#086707" stroke-width="2" />
	<line x1="245.20631446843572" y1="1880" x2="245.20631446843572" y2="1930" stroke="#086707" stroke-width="2" />
	<line x1="1133.2063144684357" y1="1880" x2="1133.2063144684357" y2="1930" stroke="#086707" stroke-width="2" />
	<line x1="689.0485370356905" y1="1880" x2="689.0485370356905" y2="1930" stroke="#086707" stroke-width="2" />
	<rect x="1168.2063144684357" y="1880" width="238" height="50" fill="#d540bd" rx="100" />
	<text x="1173.0" y="1911.75" fill="#2abf42" font-family="FiraCode Nerd Font,Ubuntu Mono,monospace,Arial" font-size="20">solveq5rigidtile.py</text>
	<line x1="649.0485370356905" y1="1880" x2="649.0485370356905" y2="1930" stroke="#d7a613" stroke-width="2" />
	<line x1="361.04853703569046" y1="1880" x2="361.04853703569046" y2="1930" stroke="#349d0b" stroke-width="2" />
	<line x1="165.20188523363322" y1="1880" x2="165.20188523363322" y2="1930" stroke="#dd94e1" stroke-width="2" />
	<line x1="1441.2063144684357" y1="1880" x2="1441.2063144684357" y2="1930" stroke="#dd94e1" stroke-width="2" />
	<line x1="205.20631446843572" y1="1880" x2="205.20631446843572" y2="1930" stroke="#6292fa" stroke-width="2" />
	<line x1="1481.2063144684357" y1="1880" x2="1481.2063144684357" y2="1930" stroke="#a5660b" stroke-width="2" />
	<line x1="401.04853703569046" y1="1990" x2="401.04853703569046" y2="2040" stroke="#7e5538" stroke-width="2" />
	<line x1="729.0485370356905" y1="1990" x2="729.0485370356905" y2="2040" stroke="#086707" stroke-width="2" />
	<line x1="1093.2063144684357" y1="1990" x2="1093.2063144684357" y2="2040" stroke="#086707" stroke-width="2" />
	<line x1="245.20631446843572" y1="1990" x2="245.20631446843572" y2="2040" stroke="#086707" stroke-width="2" />
	<line x1="1133.2063144684357" y1="1990" x2="1133.2063144684357" y2="2040" stroke="#086707" stroke-width="2" />
	<line x1="689.0485370356905" y1="1990" x2="689.0485370356905" y2="2040" stroke="#086707" stroke-width="2" />
	<rect x="1186.2063144684357" y="1990" width="202" height="50" fill="#118f1f" />
	<text x="1191.0" y="2021.75" fill="#ee70e0" font-family="FiraCode Nerd Font,Ubuntu Mono,monospace,Arial" font-size="20">solveq5rigidtile</text>
	<line x1="649.0485370356905" y1="1990" x2="649.0485370356905" y2="2040" stroke="#d7a613" stroke-width="2" />
	<line x1="361.04853703569046" y1="1990" x2="361.04853703569046" y2="2040" stroke="#349d0b" stroke-width="2" />
	<line x1="165.20188523363322" y1="1990" x2="165.20188523363322" y2="2040" stroke="#dd94e1" stroke-width="2" />
	<line x1="1441.2063144684357" y1="1990" x2="1441.2063144684357" y2="2040" stroke="#dd94e1" stroke-width="2" />
	<line x1="205.20631446843572" y1="1990" x2="205.20631446843572" y2="2040" stroke="#6292fa" stroke-width="2" />
	<line x1="1481.2063144684357" y1="1990" x2="1481.2063144684357" y2="2040" stroke="#a5660b" stroke-width="2" />
	<rect x="280.2063144684357" y="2100" width="214" height="50" fill="#e777b9" rx="100" />
	<text x="285.0" y="2131.75" fill="#188846" font-family="FiraCode Nerd Font,Ubuntu Mono,monospace,Arial" font-size="20">solveq5elastic.py</text>
	<rect x="524.2063144684357" y="2100" width="262" height="50" fill="#aa28b8" rx="100" />
	<text x="529.0" y="2131.75" fill="#55d747" font-family="FiraCode Nerd Font,Ubuntu Mono,monospace,Arial" font-size="20">globalshiftq5rigid.py</text>
	<line x1="1093.2063144684357" y1="2100" x2="1093.2063144684357" y2="2150" stroke="#086707" stroke-width="2" />
	<line x1="245.20631446843572" y1="2100" x2="245.20631446843572" y2="2150" stroke="#086707" stroke-width="2" />
	<rect x="856.2063144684357" y="2100" width="202" height="50" fill="#464d53" rx="100" />
	<text x="861.0" y="2131.75" fill="#b9b2ac" font-family="FiraCode Nerd Font,Ubuntu Mono,monospace,Arial" font-size="20">renderq5rigid.py</text>
	<line x1="821.2063144684357" y1="2100" x2="821.2063144684357" y2="2150" stroke="#118f1f" stroke-width="2" />
	<line x1="205.20631446843572" y1="2100" x2="205.20631446843572" y2="2150" stroke="#118f1f" stroke-width="2" />
	<line x1="165.20188523363322" y1="2100" x2="165.20188523363322" y2="2150" stroke="#dd94e1" stroke-width="2" />
	<line x1="1481.2063144684357" y1="2100" x2="1481.2063144684357" y2="2150" stroke="#a5660b" stroke-width="2" />
	<rect x="298.2063144684357" y="2210" width="178" height="50" fill="#c8083d" />
	<text x="303.0" y="2241.75" fill="#37f7c2" font-family="FiraCode Nerd Font,Ubuntu Mono,monospace,Arial" font-size="20">solveq5elastic</text>
	<rect x="640.5738032945553" y="2210" width="106" height="50" fill="#86fced" />
	<text x="645.0" y="2241.75" fill="#790312" font-family="FiraCode Nerd Font,Ubuntu Mono,monospace,Arial" font-size="20">q5global</text>
	<rect x="528.5738032945553" y="2210" width="82" height="50" fill="#656ea5" />
	<text x="533.0" y="2241.75" fill="#9a915a" font-family="FiraCode Nerd Font,Ubuntu Mono,monospace,Arial" font-size="20">q5bbox</text>
	<line x1="1093.2063144684357" y1="2210" x2="1093.2063144684357" y2="2260" stroke="#086707" stroke-width="2" />
	<line x1="245.20631446843572" y1="2210" x2="245.20631446843572" y2="2260" stroke="#086707" stroke-width="2" />
	<rect x="886.2063144684357" y="2210" width="142" height="50" fill="#d565e1" />
	<text x="891.0" y="2241.75" fill="#2a9a1e" font-family="FiraCode Nerd Font,Ubuntu Mono,monospace,Arial" font-size="20">rigidq5/jpg</text>
	<line x1="821.2063144684357" y1="2210" x2="821.2063144684357" y2="2260" stroke="#118f1f" stroke-width="2" />
	<line x1="205.20631446843572" y1="2210" x2="205.20631446843572" y2="2260" stroke="#118f1f" stroke-width="2" />
	<line x1="165.20188523363322" y1="2210" x2="165.20188523363322" y2="2260" stroke="#dd94e1" stroke-width="2" />
	<line x1="1481.2063144684357" y1="2210" x2="1481.2063144684357" y2="2260" stroke="#a5660b" stroke-width="2" />
	<rect x="829.1568644949004" y="2320" width="142" height="50" fill="#dd812d" rx="100" />
	<text x="834.0" y="2351.75" fill="#227ed2" font-family="FiraCode Nerd Font,Ubuntu Mono,monospace,Arial" font-size="20">renderq1.py</text>
	<rect x="205.00457759952565" y="2320" width="226" height="50" fill="#d8f3d7" rx="100" />
	<text x="210.0" y="2351.75" fill="#270c28" font-family="FiraCode Nerd Font,Ubuntu Mono,monospace,Arial" font-size="20">renderq5elastic.py</text>
	<rect x="726.9053722134004" y="2430" width="166" height="50" fill="#4333ef" />
	<text x="731.0" y="2461.75" fill="#bccc10" font-family="FiraCode Nerd Font,Ubuntu Mono,monospace,Arial" font-size="20">q1pyramid/jpg</text>
	<rect x="922.9053722134001" y="2430" width="154" height="50" fill="#97e032" />
	<text x="927.0" y="2461.75" fill="#681fcd" font-family="FiraCode Nerd Font,Ubuntu Mono,monospace,Arial" font-size="20">renderq1done</text>
	<rect x="235.00457759952565" y="2430" width="166" height="50" fill="#bad273" />
	<text x="240.0" y="2461.75" fill="#452d8c" font-family="FiraCode Nerd Font,Ubuntu Mono,monospace,Arial" font-size="20">q5elastic/jpg</text>
	<rect x="860.0" y="2540" width="142" height="50" fill="#d128bb" rx="100" />
	<text x="865.0" y="2571.75" fill="#2ed744" font-family="FiraCode Nerd Font,Ubuntu Mono,monospace,Arial" font-size="20">q1emovie.py</text>
	<rect x="652.0" y="2540" width="142" height="50" fill="#7def9b" rx="100" />
	<text x="657.0" y="2571.75" fill="#821064" font-family="FiraCode Nerd Font,Ubuntu Mono,monospace,Arial" font-size="20">zcombine.py</text>
	<rect x="443.9999999999999" y="2540" width="142" height="50" fill="#7fe75e" rx="100" />
	<text x="448.0" y="2571.75" fill="#8018a1" font-family="FiraCode Nerd Font,Ubuntu Mono,monospace,Arial" font-size="20">q5emovie.py</text>
	<rect x="241.99999999999994" y="2540" width="142" height="50" fill="#47c269" rx="100" />
	<text x="246.0" y="2571.75" fill="#b83d96" font-family="FiraCode Nerd Font,Ubuntu Mono,monospace,Arial" font-size="20">q5toq100.py</text>
	<rect x="34.0" y="2540" width="130" height="50" fill="#33cfd6" rx="100" />
	<text x="39.0" y="2571.75" fill="#cc3029" font-family="FiraCode Nerd Font,Ubuntu Mono,monospace,Arial" font-size="20">q5toq25.py</text>
	<rect x="854.0" y="2650" width="154" height="50" fill="#926807" />
	<text x="859.0" y="2681.75" fill="#6d97f8" font-family="FiraCode Nerd Font,Ubuntu Mono,monospace,Arial" font-size="20">q1emovie.mp4</text>
	<rect x="622.0" y="2650" width="202" height="50" fill="#e4e036" />
	<text x="627.0" y="2681.75" fill="#1b1fc9" font-family="FiraCode Nerd Font,Ubuntu Mono,monospace,Arial" font-size="20">q1pyramid/ab/jpg</text>
	<rect x="437.9999999999999" y="2650" width="154" height="50" fill="#44684a" />
	<text x="442.0" y="2681.75" fill="#bb97b5" font-family="FiraCode Nerd Font,Ubuntu Mono,monospace,Arial" font-size="20">q5emovie.mp4</text>
	<rect x="217.99999999999994" y="2650" width="190" height="50" fill="#8f6c28" />
	<text x="222.0" y="2681.75" fill="#7093d7" font-family="FiraCode Nerd Font,Ubuntu Mono,monospace,Arial" font-size="20">q100elastic/jpg</text>
	<rect x="10.0" y="2650" width="178" height="50" fill="#9cd58b" />
	<text x="15.0" y="2681.75" fill="#632a74" font-family="FiraCode Nerd Font,Ubuntu Mono,monospace,Arial" font-size="20">q25elastic/jpg</text>
	<rect x="652.0" y="2760" width="142" height="50" fill="#53e29e" rx="100" />
	<text x="657.0" y="2791.75" fill="#ac1d61" font-family="FiraCode Nerd Font,Ubuntu Mono,monospace,Arial" font-size="20">chunkify.py</text>
	<rect x="229.99999999999994" y="2760" width="166" height="50" fill="#2a00c3" rx="100" />
	<text x="234.0" y="2791.75" fill="#d5ff3c" font-family="FiraCode Nerd Font,Ubuntu Mono,monospace,Arial" font-size="20">q100emovie.py</text>
	<rect x="628.0" y="2870" width="190" height="50" fill="#f378bf" />
	<text x="633.0" y="2901.75" fill="#0c8740" font-family="FiraCode Nerd Font,Ubuntu Mono,monospace,Arial" font-size="20">q1chunks/ab/jpg</text>
	<rect x="223.99999999999994" y="2870" width="178" height="50" fill="#a3225a" />
	<text x="228.0" y="2901.75" fill="#5cdda5" font-family="FiraCode Nerd Font,Ubuntu Mono,monospace,Arial" font-size="20">q100emovie.mp4</text>
	<rect x="700.0" y="2980" width="46" height="50" fill="#ff0f02" />
	<text x="705.0" y="3011.75" fill="#00f0fd" font-family="FiraCode Nerd Font,Ubuntu Mono,monospace,Arial" font-size="20">ALL</text>
	<line x1="1214.6332550513075" y1="60" x2="1123.2485231315372" y2="120" stroke="#a5660b" stroke-width="2" />
	<polygon points="1118.2485231315372,115 1128.2485231315372,115 1123.2485231315372,120" fill="#a5660b" />
	<line x1="1214.6332550513075" y1="60" x2="1011.2485231315372" y2="120" stroke="#a5660b" stroke-width="2" />
	<line x1="1214.6332550513075" y1="60" x2="1481.2063144684357" y2="120" stroke="#a5660b" stroke-width="2" />
	<line x1="1123.2485231315372" y1="170" x2="1123.2485231315372" y2="230" stroke="#aad9e0" stroke-width="2" />
	<polygon points="1118.2485231315372,225 1128.2485231315372,225 1123.2485231315372,230" fill="#aad9e0" />
	<line x1="1011.2485231315372" y1="170" x2="1011.2485231315372" y2="230" stroke="#a5660b" stroke-width="2" />
	<line x1="1481.2063144684357" y1="170" x2="1481.2063144684357" y2="230" stroke="#a5660b" stroke-width="2" />
	<line x1="1123.2485231315372" y1="280" x2="1067.2485231315372" y2="340" stroke="#f81ed0" stroke-width="2" />
	<polygon points="1062.2485231315372,335 1072.2485231315372,335 1067.2485231315372,340" fill="#f81ed0" />
	<line x1="1011.2485231315372" y1="280" x2="1067.2485231315372" y2="340" stroke="#a5660b" stroke-width="2" />
	<polygon points="1062.2485231315372,335 1072.2485231315372,335 1067.2485231315372,340" fill="#a5660b" />
	<line x1="1481.2063144684357" y1="280" x2="1481.2063144684357" y2="340" stroke="#a5660b" stroke-width="2" />
	<line x1="1067.2485231315372" y1="390" x2="1139.8142612828688" y2="450" stroke="#36163a" stroke-width="2" />
	<polygon points="1134.8142612828688,445 1144.8142612828688,445 1139.8142612828688,450" fill="#36163a" />
	<line x1="1067.2485231315372" y1="390" x2="924.191773924174" y2="450" stroke="#36163a" stroke-width="2" />
	<polygon points="919.191773924174,445 929.191773924174,445 924.191773924174,450" fill="#36163a" />
	<line x1="1481.2063144684357" y1="390" x2="1481.2063144684357" y2="450" stroke="#a5660b" stroke-width="2" />
	<line x1="1139.8142612828688" y1="500" x2="1139.8142612828688" y2="560" stroke="#c14ed5" stroke-width="2" />
	<line x1="924.191773924174" y1="500" x2="997.8142612828688" y2="560" stroke="#dd94e1" stroke-width="2" />
	<polygon points="992.8142612828688,555 1002.8142612828688,555 997.8142612828688,560" fill="#dd94e1" />
	<line x1="924.191773924174" y1="500" x2="741.8142612828688" y2="560" stroke="#dd94e1" stroke-width="2" />
	<polygon points="736.8142612828688,555 746.8142612828688,555 741.8142612828688,560" fill="#dd94e1" />
	<line x1="924.191773924174" y1="500" x2="165.20188523363322" y2="560" stroke="#dd94e1" stroke-width="2" />
	<line x1="924.191773924174" y1="500" x2="1441.2063144684357" y2="560" stroke="#dd94e1" stroke-width="2" />
	<line x1="924.191773924174" y1="500" x2="497.8142612828692" y2="560" stroke="#dd94e1" stroke-width="2" />
	<polygon points="492.8142612828692,555 502.8142612828692,555 497.8142612828692,560" fill="#dd94e1" />
	<line x1="1481.2063144684357" y1="500" x2="1481.2063144684357" y2="560" stroke="#a5660b" stroke-width="2" />
	<line x1="1139.8142612828688" y1="610" x2="1139.8142612828688" y2="670" stroke="#c14ed5" stroke-width="2" />
	<line x1="997.8142612828688" y1="610" x2="997.8142612828688" y2="670" stroke="#3d8402" stroke-width="2" />
	<polygon points="992.8142612828688,665 1002.8142612828688,665 997.8142612828688,670" fill="#3d8402" />
	<line x1="741.8142612828688" y1="610" x2="741.8142612828688" y2="670" stroke="#d35d36" stroke-width="2" />
	<polygon points="736.8142612828688,665 746.8142612828688,665 741.8142612828688,670" fill="#d35d36" />
	<line x1="165.20188523363322" y1="610" x2="165.20188523363322" y2="670" stroke="#dd94e1" stroke-width="2" />
	<line x1="1441.2063144684357" y1="610" x2="1441.2063144684357" y2="670" stroke="#dd94e1" stroke-width="2" />
	<line x1="497.8142612828692" y1="610" x2="497.8142612828692" y2="670" stroke="#f06be5" stroke-width="2" />
	<polygon points="492.8142612828692,665 502.8142612828692,665 497.8142612828692,670" fill="#f06be5" />
	<line x1="1481.2063144684357" y1="610" x2="1481.2063144684357" y2="670" stroke="#a5660b" stroke-width="2" />
	<line x1="1139.8142612828688" y1="720" x2="1139.8142612828688" y2="780" stroke="#c14ed5" stroke-width="2" />
	<line x1="997.8142612828688" y1="720" x2="649.0485370356905" y2="780" stroke="#d7a613" stroke-width="2" />
	<line x1="997.8142612828688" y1="720" x2="986.4266658628569" y2="780" stroke="#d7a613" stroke-width="2" />
	<line x1="997.8142612828688" y1="720" x2="1347.2063144684357" y2="780" stroke="#d7a613" stroke-width="2" />
	<line x1="997.8142612828688" y1="720" x2="779.0485370356905" y2="780" stroke="#d7a613" stroke-width="2" />
	<polygon points="774.0485370356905,775 784.0485370356905,775 779.0485370356905,780" fill="#d7a613" />
	<line x1="741.8142612828688" y1="720" x2="361.04853703569046" y2="780" stroke="#349d0b" stroke-width="2" />
	<line x1="741.8142612828688" y1="720" x2="525.0485370356905" y2="780" stroke="#349d0b" stroke-width="2" />
	<line x1="741.8142612828688" y1="720" x2="1307.2063144684357" y2="780" stroke="#349d0b" stroke-width="2" />
	<line x1="741.8142612828688" y1="720" x2="779.0485370356905" y2="780" stroke="#349d0b" stroke-width="2" />
	<polygon points="774.0485370356905,775 784.0485370356905,775 779.0485370356905,780" fill="#349d0b" />
	<line x1="165.20188523363322" y1="720" x2="165.20188523363322" y2="780" stroke="#dd94e1" stroke-width="2" />
	<line x1="1441.2063144684357" y1="720" x2="1441.2063144684357" y2="780" stroke="#dd94e1" stroke-width="2" />
	<line x1="497.8142612828692" y1="720" x2="205.20631446843572" y2="780" stroke="#6292fa" stroke-width="2" />
	<line x1="497.8142612828692" y1="720" x2="321.04853703569046" y2="780" stroke="#6292fa" stroke-width="2" />
	<line x1="497.8142612828692" y1="720" x2="1267.2063144684357" y2="780" stroke="#6292fa" stroke-width="2" />
	<line x1="497.8142612828692" y1="720" x2="779.0485370356905" y2="780" stroke="#6292fa" stroke-width="2" />
	<polygon points="774.0485370356905,775 784.0485370356905,775 779.0485370356905,780" fill="#6292fa" />
	<line x1="1481.2063144684357" y1="720" x2="1481.2063144684357" y2="780" stroke="#a5660b" stroke-width="2" />
	<line x1="1139.8142612828688" y1="830" x2="1139.8142612828688" y2="890" stroke="#c14ed5" stroke-width="2" />
	<line x1="649.0485370356905" y1="830" x2="649.0485370356905" y2="890" stroke="#d7a613" stroke-width="2" />
	<line x1="986.4266658628569" y1="830" x2="986.4266658628569" y2="890" stroke="#d7a613" stroke-width="2" />
	<line x1="1347.2063144684357" y1="830" x2="1347.2063144684357" y2="890" stroke="#d7a613" stroke-width="2" />
	<line x1="779.0485370356905" y1="830" x2="779.0485370356905" y2="890" stroke="#014a0a" stroke-width="2" />
	<polygon points="774.0485370356905,885 784.0485370356905,885 779.0485370356905,890" fill="#014a0a" />
	<line x1="361.04853703569046" y1="830" x2="361.04853703569046" y2="890" stroke="#349d0b" stroke-width="2" />
	<line x1="525.0485370356905" y1="830" x2="525.0485370356905" y2="890" stroke="#349d0b" stroke-width="2" />
	<line x1="1307.2063144684357" y1="830" x2="1307.2063144684357" y2="890" stroke="#349d0b" stroke-width="2" />
	<line x1="165.20188523363322" y1="830" x2="165.20188523363322" y2="890" stroke="#dd94e1" stroke-width="2" />
	<line x1="1441.2063144684357" y1="830" x2="1441.2063144684357" y2="890" stroke="#dd94e1" stroke-width="2" />
	<line x1="205.20631446843572" y1="830" x2="205.20631446843572" y2="890" stroke="#6292fa" stroke-width="2" />
	<line x1="321.04853703569046" y1="830" x2="321.04853703569046" y2="890" stroke="#6292fa" stroke-width="2" />
	<line x1="1267.2063144684357" y1="830" x2="1267.2063144684357" y2="890" stroke="#6292fa" stroke-width="2" />
	<line x1="1481.2063144684357" y1="830" x2="1481.2063144684357" y2="890" stroke="#a5660b" stroke-width="2" />
	<line x1="1139.8142612828688" y1="940" x2="844.4266658628569" y2="1000" stroke="#c14ed5" stroke-width="2" />
	<polygon points="839.4266658628569,995 849.4266658628569,995 844.4266658628569,1000" fill="#c14ed5" />
	<line x1="649.0485370356905" y1="940" x2="649.0485370356905" y2="1000" stroke="#d7a613" stroke-width="2" />
	<line x1="986.4266658628569" y1="940" x2="986.4266658628569" y2="1000" stroke="#d7a613" stroke-width="2" />
	<line x1="1347.2063144684357" y1="940" x2="1347.2063144684357" y2="1000" stroke="#d7a613" stroke-width="2" />
	<line x1="779.0485370356905" y1="940" x2="844.4266658628569" y2="1000" stroke="#d594bb" stroke-width="2" />
	<polygon points="839.4266658628569,995 849.4266658628569,995 844.4266658628569,1000" fill="#d594bb" />
	<line x1="779.0485370356905" y1="940" x2="702.4266658628571" y2="1000" stroke="#d594bb" stroke-width="2" />
	<line x1="361.04853703569046" y1="940" x2="361.04853703569046" y2="1000" stroke="#349d0b" stroke-width="2" />
	<line x1="525.0485370356905" y1="940" x2="525.0485370356905" y2="1000" stroke="#349d0b" stroke-width="2" />
	<line x1="1307.2063144684357" y1="940" x2="1307.2063144684357" y2="1000" stroke="#349d0b" stroke-width="2" />
	<line x1="165.20188523363322" y1="940" x2="165.20188523363322" y2="1000" stroke="#dd94e1" stroke-width="2" />
	<line x1="1441.2063144684357" y1="940" x2="1441.2063144684357" y2="1000" stroke="#dd94e1" stroke-width="2" />
	<line x1="205.20631446843572" y1="940" x2="205.20631446843572" y2="1000" stroke="#6292fa" stroke-width="2" />
	<line x1="321.04853703569046" y1="940" x2="321.04853703569046" y2="1000" stroke="#6292fa" stroke-width="2" />
	<line x1="1267.2063144684357" y1="940" x2="1267.2063144684357" y2="1000" stroke="#6292fa" stroke-width="2" />
	<line x1="1481.2063144684357" y1="940" x2="1481.2063144684357" y2="1000" stroke="#a5660b" stroke-width="2" />
	<line x1="844.4266658628569" y1="1050" x2="844.4266658628569" y2="1110" stroke="#60a237" stroke-width="2" />
	<polygon points="839.4266658628569,1105 849.4266658628569,1105 844.4266658628569,1110" fill="#60a237" />
	<line x1="649.0485370356905" y1="1050" x2="649.0485370356905" y2="1110" stroke="#d7a613" stroke-width="2" />
	<line x1="986.4266658628569" y1="1050" x2="986.4266658628569" y2="1110" stroke="#d7a613" stroke-width="2" />
	<line x1="1347.2063144684357" y1="1050" x2="1347.2063144684357" y2="1110" stroke="#d7a613" stroke-width="2" />
	<line x1="702.4266658628571" y1="1050" x2="702.4266658628571" y2="1110" stroke="#d594bb" stroke-width="2" />
	<line x1="361.04853703569046" y1="1050" x2="361.04853703569046" y2="1110" stroke="#349d0b" stroke-width="2" />
	<line x1="525.0485370356905" y1="1050" x2="525.0485370356905" y2="1110" stroke="#349d0b" stroke-width="2" />
	<line x1="1307.2063144684357" y1="1050" x2="1307.2063144684357" y2="1110" stroke="#349d0b" stroke-width="2" />
	<line x1="165.20188523363322" y1="1050" x2="165.20188523363322" y2="1110" stroke="#dd94e1" stroke-width="2" />
	<line x1="1441.2063144684357" y1="1050" x2="1441.2063144684357" y2="1110" stroke="#dd94e1" stroke-width="2" />
	<line x1="205.20631446843572" y1="1050" x2="205.20631446843572" y2="1110" stroke="#6292fa" stroke-width="2" />
	<line x1="321.04853703569046" y1="1050" x2="321.04853703569046" y2="1110" stroke="#6292fa" stroke-width="2" />
	<line x1="1267.2063144684357" y1="1050" x2="1267.2063144684357" y2="1110" stroke="#6292fa" stroke-width="2" />
	<line x1="1481.2063144684357" y1="1050" x2="1481.2063144684357" y2="1110" stroke="#a5660b" stroke-width="2" />
	<line x1="844.4266658628569" y1="1160" x2="844.4266658628569" y2="1220" stroke="#8ba266" stroke-width="2" />
	<polygon points="839.4266658628569,1215 849.4266658628569,1215 844.4266658628569,1220" fill="#8ba266" />
	<line x1="649.0485370356905" y1="1160" x2="649.0485370356905" y2="1220" stroke="#d7a613" stroke-width="2" />
	<line x1="986.4266658628569" y1="1160" x2="986.4266658628569" y2="1220" stroke="#d7a613" stroke-width="2" />
	<line x1="1347.2063144684357" y1="1160" x2="1347.2063144684357" y2="1220" stroke="#d7a613" stroke-width="2" />
	<line x1="702.4266658628571" y1="1160" x2="702.4266658628571" y2="1220" stroke="#d594bb" stroke-width="2" />
	<line x1="361.04853703569046" y1="1160" x2="361.04853703569046" y2="1220" stroke="#349d0b" stroke-width="2" />
	<line x1="525.0485370356905" y1="1160" x2="525.0485370356905" y2="1220" stroke="#349d0b" stroke-width="2" />
	<line x1="1307.2063144684357" y1="1160" x2="1307.2063144684357" y2="1220" stroke="#349d0b" stroke-width="2" />
	<line x1="165.20188523363322" y1="1160" x2="165.20188523363322" y2="1220" stroke="#dd94e1" stroke-width="2" />
	<line x1="1441.2063144684357" y1="1160" x2="1441.2063144684357" y2="1220" stroke="#dd94e1" stroke-width="2" />
	<line x1="205.20631446843572" y1="1160" x2="205.20631446843572" y2="1220" stroke="#6292fa" stroke-width="2" />
	<line x1="321.04853703569046" y1="1160" x2="321.04853703569046" y2="1220" stroke="#6292fa" stroke-width="2" />
	<line x1="1267.2063144684357" y1="1160" x2="1267.2063144684357" y2="1220" stroke="#6292fa" stroke-width="2" />
	<line x1="1481.2063144684357" y1="1160" x2="1481.2063144684357" y2="1220" stroke="#a5660b" stroke-width="2" />
	<line x1="844.4266658628569" y1="1270" x2="844.4266658628569" y2="1330" stroke="#2f78dd" stroke-width="2" />
	<polygon points="839.4266658628569,1325 849.4266658628569,1325 844.4266658628569,1330" fill="#2f78dd" />
	<line x1="649.0485370356905" y1="1270" x2="649.0485370356905" y2="1330" stroke="#d7a613" stroke-width="2" />
	<line x1="986.4266658628569" y1="1270" x2="986.4266658628569" y2="1330" stroke="#d7a613" stroke-width="2" />
	<line x1="1347.2063144684357" y1="1270" x2="1347.2063144684357" y2="1330" stroke="#d7a613" stroke-width="2" />
	<line x1="702.4266658628571" y1="1270" x2="702.4266658628571" y2="1330" stroke="#d594bb" stroke-width="2" />
	<line x1="361.04853703569046" y1="1270" x2="361.04853703569046" y2="1330" stroke="#349d0b" stroke-width="2" />
	<line x1="525.0485370356905" y1="1270" x2="525.0485370356905" y2="1330" stroke="#349d0b" stroke-width="2" />
	<line x1="1307.2063144684357" y1="1270" x2="1307.2063144684357" y2="1330" stroke="#349d0b" stroke-width="2" />
	<line x1="165.20188523363322" y1="1270" x2="165.20188523363322" y2="1330" stroke="#dd94e1" stroke-width="2" />
	<line x1="1441.2063144684357" y1="1270" x2="1441.2063144684357" y2="1330" stroke="#dd94e1" stroke-width="2" />
	<line x1="205.20631446843572" y1="1270" x2="205.20631446843572" y2="1330" stroke="#6292fa" stroke-width="2" />
	<line x1="321.04853703569046" y1="1270" x2="321.04853703569046" y2="1330" stroke="#6292fa" stroke-width="2" />
	<line x1="1267.2063144684357" y1="1270" x2="1267.2063144684357" y2="1330" stroke="#6292fa" stroke-width="2" />
	<line x1="1481.2063144684357" y1="1270" x2="1481.2063144684357" y2="1330" stroke="#a5660b" stroke-width="2" />
	<line x1="844.4266658628569" y1="1380" x2="791.0485370356905" y2="1440" stroke="#296466" stroke-width="2" />
	<polygon points="786.0485370356905,1435 796.0485370356905,1435 791.0485370356905,1440" fill="#296466" />
	<line x1="649.0485370356905" y1="1380" x2="649.0485370356905" y2="1440" stroke="#d7a613" stroke-width="2" />
	<line x1="986.4266658628569" y1="1380" x2="986.4266658628569" y2="1440" stroke="#d7a613" stroke-width="2" />
	<line x1="1347.2063144684357" y1="1380" x2="1347.2063144684357" y2="1440" stroke="#d7a613" stroke-width="2" />
	<line x1="702.4266658628571" y1="1380" x2="791.0485370356905" y2="1440" stroke="#d594bb" stroke-width="2" />
	<polygon points="786.0485370356905,1435 796.0485370356905,1435 791.0485370356905,1440" fill="#d594bb" />
	<line x1="361.04853703569046" y1="1380" x2="361.04853703569046" y2="1440" stroke="#349d0b" stroke-width="2" />
	<line x1="525.0485370356905" y1="1380" x2="525.0485370356905" y2="1440" stroke="#349d0b" stroke-width="2" />
	<line x1="1307.2063144684357" y1="1380" x2="1307.2063144684357" y2="1440" stroke="#349d0b" stroke-width="2" />
	<line x1="165.20188523363322" y1="1380" x2="165.20188523363322" y2="1440" stroke="#dd94e1" stroke-width="2" />
	<line x1="1441.2063144684357" y1="1380" x2="1441.2063144684357" y2="1440" stroke="#dd94e1" stroke-width="2" />
	<line x1="205.20631446843572" y1="1380" x2="205.20631446843572" y2="1440" stroke="#6292fa" stroke-width="2" />
	<line x1="321.04853703569046" y1="1380" x2="321.04853703569046" y2="1440" stroke="#6292fa" stroke-width="2" />
	<line x1="1267.2063144684357" y1="1380" x2="1267.2063144684357" y2="1440" stroke="#6292fa" stroke-width="2" />
	<line x1="1481.2063144684357" y1="1380" x2="1481.2063144684357" y2="1440" stroke="#a5660b" stroke-width="2" />
	<line x1="791.0485370356905" y1="1490" x2="791.0485370356905" y2="1550" stroke="#1cc068" stroke-width="2" />
	<polygon points="786.0485370356905,1545 796.0485370356905,1545 791.0485370356905,1550" fill="#1cc068" />
	<line x1="649.0485370356905" y1="1490" x2="649.0485370356905" y2="1550" stroke="#d7a613" stroke-width="2" />
	<line x1="986.4266658628569" y1="1490" x2="986.4266658628569" y2="1550" stroke="#d7a613" stroke-width="2" />
	<line x1="1347.2063144684357" y1="1490" x2="1347.2063144684357" y2="1550" stroke="#d7a613" stroke-width="2" />
	<line x1="361.04853703569046" y1="1490" x2="361.04853703569046" y2="1550" stroke="#349d0b" stroke-width="2" />
	<line x1="525.0485370356905" y1="1490" x2="525.0485370356905" y2="1550" stroke="#349d0b" stroke-width="2" />
	<line x1="1307.2063144684357" y1="1490" x2="1307.2063144684357" y2="1550" stroke="#349d0b" stroke-width="2" />
	<line x1="165.20188523363322" y1="1490" x2="165.20188523363322" y2="1550" stroke="#dd94e1" stroke-width="2" />
	<line x1="1441.2063144684357" y1="1490" x2="1441.2063144684357" y2="1550" stroke="#dd94e1" stroke-width="2" />
	<line x1="205.20631446843572" y1="1490" x2="205.20631446843572" y2="1550" stroke="#6292fa" stroke-width="2" />
	<line x1="321.04853703569046" y1="1490" x2="321.04853703569046" y2="1550" stroke="#6292fa" stroke-width="2" />
	<line x1="1267.2063144684357" y1="1490" x2="1267.2063144684357" y2="1550" stroke="#6292fa" stroke-width="2" />
	<line x1="1481.2063144684357" y1="1490" x2="1481.2063144684357" y2="1550" stroke="#a5660b" stroke-width="2" />
	<line x1="791.0485370356905" y1="1600" x2="401.04853703569046" y2="1660" stroke="#7e5538" stroke-width="2" />
	<line x1="791.0485370356905" y1="1600" x2="525.0485370356905" y2="1660" stroke="#7e5538" stroke-width="2" />
	<polygon points="520.0485370356905,1655 530.0485370356905,1655 525.0485370356905,1660" fill="#7e5538" />
	<line x1="791.0485370356905" y1="1600" x2="1227.2063144684357" y2="1660" stroke="#7e5538" stroke-width="2" />
	<line x1="649.0485370356905" y1="1600" x2="649.0485370356905" y2="1660" stroke="#d7a613" stroke-width="2" />
	<line x1="986.4266658628569" y1="1600" x2="525.0485370356905" y2="1660" stroke="#d7a613" stroke-width="2" />
	<polygon points="520.0485370356905,1655 530.0485370356905,1655 525.0485370356905,1660" fill="#d7a613" />
	<line x1="1347.2063144684357" y1="1600" x2="1347.2063144684357" y2="1660" stroke="#d7a613" stroke-width="2" />
	<line x1="361.04853703569046" y1="1600" x2="361.04853703569046" y2="1660" stroke="#349d0b" stroke-width="2" />
	<line x1="525.0485370356905" y1="1600" x2="525.0485370356905" y2="1660" stroke="#349d0b" stroke-width="2" />
	<polygon points="520.0485370356905,1655 530.0485370356905,1655 525.0485370356905,1660" fill="#349d0b" />
	<line x1="1307.2063144684357" y1="1600" x2="1307.2063144684357" y2="1660" stroke="#349d0b" stroke-width="2" />
	<line x1="165.20188523363322" y1="1600" x2="165.20188523363322" y2="1660" stroke="#dd94e1" stroke-width="2" />
	<line x1="1441.2063144684357" y1="1600" x2="1441.2063144684357" y2="1660" stroke="#dd94e1" stroke-width="2" />
	<line x1="205.20631446843572" y1="1600" x2="205.20631446843572" y2="1660" stroke="#6292fa" stroke-width="2" />
	<line x1="321.04853703569046" y1="1600" x2="525.0485370356905" y2="1660" stroke="#6292fa" stroke-width="2" />
	<polygon points="520.0485370356905,1655 530.0485370356905,1655 525.0485370356905,1660" fill="#6292fa" />
	<line x1="1267.2063144684357" y1="1600" x2="1267.2063144684357" y2="1660" stroke="#6292fa" stroke-width="2" />
	<line x1="1481.2063144684357" y1="1600" x2="1481.2063144684357" y2="1660" stroke="#a5660b" stroke-width="2" />
	<line x1="401.04853703569046" y1="1710" x2="401.04853703569046" y2="1770" stroke="#7e5538" stroke-width="2" />
	<line x1="525.0485370356905" y1="1710" x2="525.0485370356905" y2="1770" stroke="#5054fe" stroke-width="2" />
	<polygon points="520.0485370356905,1765 530.0485370356905,1765 525.0485370356905,1770" fill="#5054fe" />
	<line x1="1227.2063144684357" y1="1710" x2="1227.2063144684357" y2="1770" stroke="#7e5538" stroke-width="2" />
	<line x1="649.0485370356905" y1="1710" x2="649.0485370356905" y2="1770" stroke="#d7a613" stroke-width="2" />
	<line x1="1347.2063144684357" y1="1710" x2="1347.2063144684357" y2="1770" stroke="#d7a613" stroke-width="2" />
	<line x1="361.04853703569046" y1="1710" x2="361.04853703569046" y2="1770" stroke="#349d0b" stroke-width="2" />
	<line x1="1307.2063144684357" y1="1710" x2="1307.2063144684357" y2="1770" stroke="#349d0b" stroke-width="2" />
	<line x1="165.20188523363322" y1="1710" x2="165.20188523363322" y2="1770" stroke="#dd94e1" stroke-width="2" />
	<line x1="1441.2063144684357" y1="1710" x2="1441.2063144684357" y2="1770" stroke="#dd94e1" stroke-width="2" />
	<line x1="205.20631446843572" y1="1710" x2="205.20631446843572" y2="1770" stroke="#6292fa" stroke-width="2" />
	<line x1="1267.2063144684357" y1="1710" x2="1267.2063144684357" y2="1770" stroke="#6292fa" stroke-width="2" />
	<line x1="1481.2063144684357" y1="1710" x2="1481.2063144684357" y2="1770" stroke="#a5660b" stroke-width="2" />
	<line x1="401.04853703569046" y1="1820" x2="401.04853703569046" y2="1880" stroke="#7e5538" stroke-width="2" />
	<line x1="525.0485370356905" y1="1820" x2="729.0485370356905" y2="1880" stroke="#086707" stroke-width="2" />
	<line x1="525.0485370356905" y1="1820" x2="1093.2063144684357" y2="1880" stroke="#086707" stroke-width="2" />
	<line x1="525.0485370356905" y1="1820" x2="245.20631446843572" y2="1880" stroke="#086707" stroke-width="2" />
	<line x1="525.0485370356905" y1="1820" x2="1133.2063144684357" y2="1880" stroke="#086707" stroke-width="2" />
	<line x1="525.0485370356905" y1="1820" x2="689.0485370356905" y2="1880" stroke="#086707" stroke-width="2" />
	<line x1="525.0485370356905" y1="1820" x2="1287.2063144684357" y2="1880" stroke="#086707" stroke-width="2" />
	<polygon points="1282.2063144684357,1875 1292.2063144684357,1875 1287.2063144684357,1880" fill="#086707" />
	<line x1="1227.2063144684357" y1="1820" x2="1287.2063144684357" y2="1880" stroke="#7e5538" stroke-width="2" />
	<polygon points="1282.2063144684357,1875 1292.2063144684357,1875 1287.2063144684357,1880" fill="#7e5538" />
	<line x1="649.0485370356905" y1="1820" x2="649.0485370356905" y2="1880" stroke="#d7a613" stroke-width="2" />
	<line x1="1347.2063144684357" y1="1820" x2="1287.2063144684357" y2="1880" stroke="#d7a613" stroke-width="2" />
	<polygon points="1282.2063144684357,1875 1292.2063144684357,1875 1287.2063144684357,1880" fill="#d7a613" />
	<line x1="361.04853703569046" y1="1820" x2="361.04853703569046" y2="1880" stroke="#349d0b" stroke-width="2" />
	<line x1="1307.2063144684357" y1="1820" x2="1287.2063144684357" y2="1880" stroke="#349d0b" stroke-width="2" />
	<polygon points="1282.2063144684357,1875 1292.2063144684357,1875 1287.2063144684357,1880" fill="#349d0b" />
	<line x1="165.20188523363322" y1="1820" x2="165.20188523363322" y2="1880" stroke="#dd94e1" stroke-width="2" />
	<line x1="1441.2063144684357" y1="1820" x2="1441.2063144684357" y2="1880" stroke="#dd94e1" stroke-width="2" />
	<line x1="205.20631446843572" y1="1820" x2="205.20631446843572" y2="1880" stroke="#6292fa" stroke-width="2" />
	<line x1="1267.2063144684357" y1="1820" x2="1287.2063144684357" y2="1880" stroke="#6292fa" stroke-width="2" />
	<polygon points="1282.2063144684357,1875 1292.2063144684357,1875 1287.2063144684357,1880" fill="#6292fa" />
	<line x1="1481.2063144684357" y1="1820" x2="1481.2063144684357" y2="1880" stroke="#a5660b" stroke-width="2" />
	<line x1="401.04853703569046" y1="1930" x2="401.04853703569046" y2="1990" stroke="#7e5538" stroke-width="2" />
	<line x1="729.0485370356905" y1="1930" x2="729.0485370356905" y2="1990" stroke="#086707" stroke-width="2" />
	<line x1="1093.2063144684357" y1="1930" x2="1093.2063144684357" y2="1990" stroke="#086707" stroke-width="2" />
	<line x1="245.20631446843572" y1="1930" x2="245.20631446843572" y2="1990" stroke="#086707" stroke-width="2" />
	<line x1="1133.2063144684357" y1="1930" x2="1133.2063144684357" y2="1990" stroke="#086707" stroke-width="2" />
	<line x1="689.0485370356905" y1="1930" x2="689.0485370356905" y2="1990" stroke="#086707" stroke-width="2" />
	<line x1="1287.2063144684357" y1="1930" x2="1287.2063144684357" y2="1990" stroke="#d540bd" stroke-width="2" />
	<polygon points="1282.2063144684357,1985 1292.2063144684357,1985 1287.2063144684357,1990" fill="#d540bd" />
	<line x1="649.0485370356905" y1="1930" x2="649.0485370356905" y2="1990" stroke="#d7a613" stroke-width="2" />
	<line x1="361.04853703569046" y1="1930" x2="361.04853703569046" y2="1990" stroke="#349d0b" stroke-width="2" />
	<line x1="165.20188523363322" y1="1930" x2="165.20188523363322" y2="1990" stroke="#dd94e1" stroke-width="2" />
	<line x1="1441.2063144684357" y1="1930" x2="1441.2063144684357" y2="1990" stroke="#dd94e1" stroke-width="2" />
	<line x1="205.20631446843572" y1="1930" x2="205.20631446843572" y2="1990" stroke="#6292fa" stroke-width="2" />
	<line x1="1481.2063144684357" y1="1930" x2="1481.2063144684357" y2="1990" stroke="#a5660b" stroke-width="2" />
	<line x1="401.04853703569046" y1="2040" x2="387.2063144684357" y2="2100" stroke="#7e5538" stroke-width="2" />
	<polygon points="382.2063144684357,2095 392.2063144684357,2095 387.2063144684357,2100" fill="#7e5538" />
	<line x1="729.0485370356905" y1="2040" x2="655.2063144684357" y2="2100" stroke="#086707" stroke-width="2" />
	<polygon points="650.2063144684357,2095 660.2063144684357,2095 655.2063144684357,2100" fill="#086707" />
	<line x1="1093.2063144684357" y1="2040" x2="1093.2063144684357" y2="2100" stroke="#086707" stroke-width="2" />
	<line x1="245.20631446843572" y1="2040" x2="245.20631446843572" y2="2100" stroke="#086707" stroke-width="2" />
	<line x1="1133.2063144684357" y1="2040" x2="957.2063144684357" y2="2100" stroke="#086707" stroke-width="2" />
	<polygon points="952.2063144684357,2095 962.2063144684357,2095 957.2063144684357,2100" fill="#086707" />
	<line x1="689.0485370356905" y1="2040" x2="387.2063144684357" y2="2100" stroke="#086707" stroke-width="2" />
	<polygon points="382.2063144684357,2095 392.2063144684357,2095 387.2063144684357,2100" fill="#086707" />
	<line x1="1287.2063144684357" y1="2040" x2="655.2063144684357" y2="2100" stroke="#118f1f" stroke-width="2" />
	<polygon points="650.2063144684357,2095 660.2063144684357,2095 655.2063144684357,2100" fill="#118f1f" />
	<line x1="1287.2063144684357" y1="2040" x2="821.2063144684357" y2="2100" stroke="#118f1f" stroke-width="2" />
	<line x1="1287.2063144684357" y1="2040" x2="205.20631446843572" y2="2100" stroke="#118f1f" stroke-width="2" />
	<line x1="1287.2063144684357" y1="2040" x2="957.2063144684357" y2="2100" stroke="#118f1f" stroke-width="2" />
	<polygon points="952.2063144684357,2095 962.2063144684357,2095 957.2063144684357,2100" fill="#118f1f" />
	<line x1="1287.2063144684357" y1="2040" x2="387.2063144684357" y2="2100" stroke="#118f1f" stroke-width="2" />
	<polygon points="382.2063144684357,2095 392.2063144684357,2095 387.2063144684357,2100" fill="#118f1f" />
	<line x1="649.0485370356905" y1="2040" x2="387.2063144684357" y2="2100" stroke="#d7a613" stroke-width="2" />
	<polygon points="382.2063144684357,2095 392.2063144684357,2095 387.2063144684357,2100" fill="#d7a613" />
	<line x1="361.04853703569046" y1="2040" x2="387.2063144684357" y2="2100" stroke="#349d0b" stroke-width="2" />
	<polygon points="382.2063144684357,2095 392.2063144684357,2095 387.2063144684357,2100" fill="#349d0b" />
	<line x1="165.20188523363322" y1="2040" x2="165.20188523363322" y2="2100" stroke="#dd94e1" stroke-width="2" />
	<line x1="1441.2063144684357" y1="2040" x2="957.2063144684357" y2="2100" stroke="#dd94e1" stroke-width="2" />
	<polygon points="952.2063144684357,2095 962.2063144684357,2095 957.2063144684357,2100" fill="#dd94e1" />
	<line x1="205.20631446843572" y1="2040" x2="387.2063144684357" y2="2100" stroke="#6292fa" stroke-width="2" />
	<polygon points="382.2063144684357,2095 392.2063144684357,2095 387.2063144684357,2100" fill="#6292fa" />
	<line x1="1481.2063144684357" y1="2040" x2="1481.2063144684357" y2="2100" stroke="#a5660b" stroke-width="2" />
	<line x1="387.2063144684357" y1="2150" x2="387.2063144684357" y2="2210" stroke="#e777b9" stroke-width="2" />
	<polygon points="382.2063144684357,2205 392.2063144684357,2205 387.2063144684357,2210" fill="#e777b9" />
	<line x1="655.2063144684357" y1="2150" x2="693.5738032945553" y2="2210" stroke="#aa28b8" stroke-width="2" />
	<polygon points="688.5738032945553,2205 698.5738032945553,2205 693.5738032945553,2210" fill="#aa28b8" />
	<line x1="655.2063144684357" y1="2150" x2="569.5738032945553" y2="2210" stroke="#aa28b8" stroke-width="2" />
	<polygon points="564.5738032945553,2205 574.5738032945553,2205 569.5738032945553,2210" fill="#aa28b8" />
	<line x1="1093.2063144684357" y1="2150" x2="1093.2063144684357" y2="2210" stroke="#086707" stroke-width="2" />
	<line x1="245.20631446843572" y1="2150" x2="245.20631446843572" y2="2210" stroke="#086707" stroke-width="2" />
	<line x1="957.2063144684357" y1="2150" x2="957.2063144684357" y2="2210" stroke="#464d53" stroke-width="2" />
	<polygon points="952.2063144684357,2205 962.2063144684357,2205 957.2063144684357,2210" fill="#464d53" />
	<line x1="821.2063144684357" y1="2150" x2="821.2063144684357" y2="2210" stroke="#118f1f" stroke-width="2" />
	<line x1="205.20631446843572" y1="2150" x2="205.20631446843572" y2="2210" stroke="#118f1f" stroke-width="2" />
	<line x1="165.20188523363322" y1="2150" x2="165.20188523363322" y2="2210" stroke="#dd94e1" stroke-width="2" />
	<line x1="1481.2063144684357" y1="2150" x2="1481.2063144684357" y2="2210" stroke="#a5660b" stroke-width="2" />
	<line x1="387.2063144684357" y1="2260" x2="900.1568644949004" y2="2320" stroke="#c8083d" stroke-width="2" />
	<polygon points="895.1568644949004,2315 905.1568644949004,2315 900.1568644949004,2320" fill="#c8083d" />
	<line x1="387.2063144684357" y1="2260" x2="318.00457759952565" y2="2320" stroke="#c8083d" stroke-width="2" />
	<polygon points="313.00457759952565,2315 323.00457759952565,2315 318.00457759952565,2320" fill="#c8083d" />
	<line x1="693.5738032945553" y1="2260" x2="900.1568644949004" y2="2320" stroke="#86fced" stroke-width="2" />
	<polygon points="895.1568644949004,2315 905.1568644949004,2315 900.1568644949004,2320" fill="#86fced" />
	<line x1="693.5738032945553" y1="2260" x2="318.00457759952565" y2="2320" stroke="#86fced" stroke-width="2" />
	<polygon points="313.00457759952565,2315 323.00457759952565,2315 318.00457759952565,2320" fill="#86fced" />
	<line x1="569.5738032945553" y1="2260" x2="900.1568644949004" y2="2320" stroke="#656ea5" stroke-width="2" />
	<polygon points="895.1568644949004,2315 905.1568644949004,2315 900.1568644949004,2320" fill="#656ea5" />
	<line x1="569.5738032945553" y1="2260" x2="318.00457759952565" y2="2320" stroke="#656ea5" stroke-width="2" />
	<polygon points="313.00457759952565,2315 323.00457759952565,2315 318.00457759952565,2320" fill="#656ea5" />
	<line x1="1093.2063144684357" y1="2260" x2="900.1568644949004" y2="2320" stroke="#086707" stroke-width="2" />
	<polygon points="895.1568644949004,2315 905.1568644949004,2315 900.1568644949004,2320" fill="#086707" />
	<line x1="245.20631446843572" y1="2260" x2="318.00457759952565" y2="2320" stroke="#086707" stroke-width="2" />
	<polygon points="313.00457759952565,2315 323.00457759952565,2315 318.00457759952565,2320" fill="#086707" />
	<line x1="821.2063144684357" y1="2260" x2="900.1568644949004" y2="2320" stroke="#118f1f" stroke-width="2" />
	<polygon points="895.1568644949004,2315 905.1568644949004,2315 900.1568644949004,2320" fill="#118f1f" />
	<line x1="205.20631446843572" y1="2260" x2="318.00457759952565" y2="2320" stroke="#118f1f" stroke-width="2" />
	<polygon points="313.00457759952565,2315 323.00457759952565,2315 318.00457759952565,2320" fill="#118f1f" />
	<line x1="165.20188523363322" y1="2260" x2="318.00457759952565" y2="2320" stroke="#dd94e1" stroke-width="2" />
	<polygon points="313.00457759952565,2315 323.00457759952565,2315 318.00457759952565,2320" fill="#dd94e1" />
	<line x1="1481.2063144684357" y1="2260" x2="900.1568644949004" y2="2320" stroke="#a5660b" stroke-width="2" />
	<polygon points="895.1568644949004,2315 905.1568644949004,2315 900.1568644949004,2320" fill="#a5660b" />
	<line x1="900.1568644949004" y1="2370" x2="809.9053722134004" y2="2430" stroke="#dd812d" stroke-width="2" />
	<polygon points="804.9053722134004,2425 814.9053722134004,2425 809.9053722134004,2430" fill="#dd812d" />
	<line x1="900.1568644949004" y1="2370" x2="999.9053722134001" y2="2430" stroke="#dd812d" stroke-width="2" />
	<polygon points="994.9053722134001,2425 1004.9053722134001,2425 999.9053722134001,2430" fill="#dd812d" />
	<line x1="318.00457759952565" y1="2370" x2="318.00457759952565" y2="2430" stroke="#d8f3d7" stroke-width="2" />
	<polygon points="313.00457759952565,2425 323.00457759952565,2425 318.00457759952565,2430" fill="#d8f3d7" />
	<line x1="809.9053722134004" y1="2480" x2="931.0" y2="2540" stroke="#4333ef" stroke-width="2" />
	<polygon points="926.0,2535 936.0,2535 931.0,2540" fill="#4333ef" />
	<line x1="809.9053722134004" y1="2480" x2="723.0" y2="2540" stroke="#4333ef" stroke-width="2" />
	<polygon points="718.0,2535 728.0,2535 723.0,2540" fill="#4333ef" />
	<line x1="318.00457759952565" y1="2480" x2="514.9999999999999" y2="2540" stroke="#bad273" stroke-width="2" />
	<polygon points="509.9999999999999,2535 519.9999999999999,2535 514.9999999999999,2540" fill="#bad273" />
	<line x1="318.00457759952565" y1="2480" x2="312.99999999999994" y2="2540" stroke="#bad273" stroke-width="2" />
	<polygon points="307.99999999999994,2535 317.99999999999994,2535 312.99999999999994,2540" fill="#bad273" />
	<line x1="318.00457759952565" y1="2480" x2="99.0" y2="2540" stroke="#bad273" stroke-width="2" />
	<polygon points="94.0,2535 104.0,2535 99.0,2540" fill="#bad273" />
	<line x1="931.0" y1="2590" x2="931.0" y2="2650" stroke="#d128bb" stroke-width="2" />
	<polygon points="926.0,2645 936.0,2645 931.0,2650" fill="#d128bb" />
	<line x1="723.0" y1="2590" x2="723.0" y2="2650" stroke="#7def9b" stroke-width="2" />
	<polygon points="718.0,2645 728.0,2645 723.0,2650" fill="#7def9b" />
	<line x1="514.9999999999999" y1="2590" x2="514.9999999999999" y2="2650" stroke="#7fe75e" stroke-width="2" />
	<polygon points="509.9999999999999,2645 519.9999999999999,2645 514.9999999999999,2650" fill="#7fe75e" />
	<line x1="312.99999999999994" y1="2590" x2="312.99999999999994" y2="2650" stroke="#47c269" stroke-width="2" />
	<polygon points="307.99999999999994,2645 317.99999999999994,2645 312.99999999999994,2650" fill="#47c269" />
	<line x1="99.0" y1="2590" x2="99.0" y2="2650" stroke="#33cfd6" stroke-width="2" />
	<polygon points="94.0,2645 104.0,2645 99.0,2650" fill="#33cfd6" />
	<line x1="723.0" y1="2700" x2="723.0" y2="2760" stroke="#e4e036" stroke-width="2" />
	<polygon points="718.0,2755 728.0,2755 723.0,2760" fill="#e4e036" />
	<line x1="312.99999999999994" y1="2700" x2="312.99999999999994" y2="2760" stroke="#8f6c28" stroke-width="2" />
	<polygon points="307.99999999999994,2755 317.99999999999994,2755 312.99999999999994,2760" fill="#8f6c28" />
	<line x1="723.0" y1="2810" x2="723.0" y2="2870" stroke="#53e29e" stroke-width="2" />
	<polygon points="718.0,2865 728.0,2865 723.0,2870" fill="#53e29e" />
	<line x1="312.99999999999994" y1="2810" x2="312.99999999999994" y2="2870" stroke="#2a00c3" stroke-width="2" />
	<polygon points="307.99999999999994,2865 317.99999999999994,2865 312.99999999999994,2870" fill="#2a00c3" />
	<line x1="723.0" y1="2920" x2="723.0" y2="2980" stroke="#f378bf" stroke-width="2" />
	<polygon points="718.0,2975 728.0,2975 723.0,2980" fill="#f378bf" />
</svg>